<svg width="40" height="36" viewBox="0 0 40 36" fill="none" xmlns="http://www.w3.org/2000/svg">
<path d="M38.4629 7.73988C37.8608 6.34567 36.9925 5.08225 35.9068 4.02034C34.8203 2.95527 33.5393 2.10888 32.1334 1.52718C30.6756 0.921602 29.112 0.611633 27.5334 0.615266C25.3188 0.615266 23.158 1.22171 21.2803 2.36722C20.8311 2.64124 20.4043 2.94222 20 3.27015C19.5957 2.94222 19.1689 2.64124 18.7197 2.36722C16.842 1.22171 14.6812 0.615266 12.4666 0.615266C10.8719 0.615266 9.32656 0.920735 7.8666 1.52718C6.45605 2.11116 5.18477 2.9512 4.09316 4.02034C3.00604 5.08105 2.13762 6.34477 1.53711 7.73988C0.912695 9.19085 0.59375 10.7317 0.59375 12.3174C0.59375 13.8133 0.899219 15.3721 1.50566 16.9578C2.01328 18.283 2.74102 19.6576 3.6709 21.0457C5.14434 23.2424 7.17031 25.5334 9.68594 27.8559C13.8547 31.7057 17.983 34.3651 18.1582 34.4729L19.2229 35.1557C19.6945 35.4567 20.301 35.4567 20.7727 35.1557L21.8373 34.4729C22.0125 34.3606 26.1363 31.7057 30.3096 27.8559C32.8252 25.5334 34.8512 23.2424 36.3246 21.0457C37.2545 19.6576 37.9867 18.283 38.4898 16.9578C39.0963 15.3721 39.4018 13.8133 39.4018 12.3174C39.4063 10.7317 39.0873 9.19085 38.4629 7.73988V7.73988Z" fill="#263646"/>
</svg>
